<svg xmlns="http://www.w3.org/2000/svg" xmlns:xlink="http://www.w3.org/1999/xlink" width="1080" zoomAndPan="magnify" viewBox="0 0 810 809.999993" height="1080" preserveAspectRatio="xMidYMid meet" version="1.0"><defs><clipPath id="92897ae7b8"><path d="M 75 209.246094 L 733 209.246094 L 733 434 L 75 434 Z M 75 209.246094 " clip-rule="nonzero"/></clipPath><clipPath id="c6594be24c"><path d="M 45 476 L 763 476 L 763 638.246094 L 45 638.246094 Z M 45 476 " clip-rule="nonzero"/></clipPath></defs><rect x="-81" width="972" fill="#ffffff" y="-80.999999" height="971.999992" fill-opacity="1"/><rect x="-81" width="972" fill="#ffffff" y="-80.999999" height="971.999992" fill-opacity="1"/><g clip-path="url(#92897ae7b8)"><path fill="#252f3e" d="M 247.578125 365.019531 C 247.578125 373.851562 248.53125 381.007812 250.203125 386.257812 C 252.109375 391.507812 254.492188 397.234375 257.828125 403.4375 C 259.019531 405.347656 259.496094 407.253906 259.496094 408.929688 C 259.496094 411.3125 258.066406 413.699219 254.96875 416.085938 L 239.949219 426.109375 C 237.808594 427.539062 235.660156 428.253906 233.753906 428.253906 C 231.371094 428.253906 228.984375 427.0625 226.601562 424.914062 C 223.265625 421.335938 220.402344 417.515625 218.023438 413.699219 C 215.636719 409.644531 213.253906 405.109375 210.632812 399.621094 C 192.039062 421.574219 168.679688 432.550781 140.550781 432.550781 C 120.53125 432.550781 104.558594 426.824219 92.875 415.371094 C 81.199219 403.917969 75.238281 388.644531 75.238281 369.554688 C 75.238281 349.273438 82.390625 332.808594 96.929688 320.398438 C 111.46875 307.992188 130.78125 301.789062 155.332031 301.789062 C 163.433594 301.789062 171.777344 302.503906 180.597656 303.695312 C 189.417969 304.890625 198.476562 306.796875 208.011719 308.945312 L 208.011719 291.527344 C 208.011719 273.390625 204.195312 260.746094 196.804688 253.347656 C 189.179688 245.949219 176.304688 242.371094 157.953125 242.371094 C 149.609375 242.371094 141.03125 243.328125 132.207031 245.472656 C 123.390625 247.621094 114.808594 250.246094 106.464844 253.585938 C 102.652344 255.257812 99.792969 256.210938 98.121094 256.6875 C 96.453125 257.164062 95.261719 257.402344 94.308594 257.402344 C 90.96875 257.402344 89.300781 255.015625 89.300781 250.007812 L 89.300781 238.3125 C 89.300781 234.496094 89.777344 231.632812 90.96875 229.960938 C 92.164062 228.292969 94.308594 226.621094 97.644531 224.953125 C 105.988281 220.65625 116 217.078125 127.679688 214.214844 C 139.359375 211.113281 151.753906 209.679688 164.863281 209.679688 C 193.230469 209.679688 213.96875 216.121094 227.320312 229.007812 C 240.429688 241.894531 247.105469 261.460938 247.105469 287.710938 L 247.105469 365.023438 L 247.578125 365.023438 Z M 150.800781 401.289062 C 158.667969 401.289062 166.773438 399.859375 175.351562 396.996094 C 183.933594 394.132812 191.5625 388.882812 197.996094 381.722656 C 201.8125 377.191406 204.671875 372.179688 206.101562 366.453125 C 207.535156 360.726562 208.488281 353.804688 208.488281 345.691406 L 208.488281 335.671875 C 201.574219 334.003906 194.183594 332.570312 186.554688 331.613281 C 178.929688 330.660156 171.539062 330.183594 164.148438 330.183594 C 148.179688 330.183594 136.5 333.285156 128.632812 339.726562 C 120.765625 346.171875 116.953125 355.238281 116.953125 367.167969 C 116.953125 378.382812 119.8125 386.734375 125.769531 392.464844 C 131.492188 398.429688 139.835938 401.289062 150.800781 401.289062 Z M 342.226562 427.0625 C 337.921875 427.0625 335.054688 426.347656 333.144531 424.675781 C 331.257812 423.246094 329.570312 419.902344 328.136719 415.371094 L 272.128906 230.917969 C 270.703125 226.144531 269.984375 223.042969 269.984375 221.371094 C 269.984375 217.554688 271.890625 215.40625 275.707031 215.40625 L 299.066406 215.40625 C 303.597656 215.40625 306.695312 216.121094 308.363281 217.792969 C 310.269531 219.226562 311.703125 222.566406 313.128906 227.097656 L 353.164062 385.066406 L 390.367188 227.097656 C 391.546875 222.328125 392.980469 219.226562 394.894531 217.792969 C 396.804688 216.363281 400.125 215.40625 404.425781 215.40625 L 423.492188 215.40625 C 428.019531 215.40625 431.113281 216.125 433.023438 217.792969 C 434.9375 219.226562 436.597656 222.566406 437.550781 227.101562 L 475.234375 386.976562 L 516.457031 227.101562 C 517.890625 222.328125 519.550781 219.226562 521.238281 217.796875 C 523.121094 216.363281 526.242188 215.410156 530.515625 215.410156 L 552.703125 215.410156 C 556.5 215.410156 558.636719 217.316406 558.636719 221.375 C 558.636719 222.566406 558.414062 223.761719 558.1875 225.191406 C 557.933594 226.625 557.457031 228.535156 556.5 231.15625 L 499.050781 415.609375 C 497.617188 420.386719 495.957031 423.488281 494.046875 424.917969 C 492.132812 426.351562 489.039062 427.304688 484.992188 427.304688 L 464.492188 427.304688 C 459.964844 427.304688 456.871094 426.589844 454.957031 424.917969 C 453.046875 423.25 451.386719 420.144531 450.429688 415.375 L 413.480469 261.464844 L 376.785156 415.136719 C 375.574219 419.90625 374.140625 423.007812 372.257812 424.679688 C 370.34375 426.351562 367 427.066406 362.726562 427.066406 L 342.226562 427.066406 Z M 648.507812 433.503906 C 636.109375 433.503906 623.734375 432.074219 611.8125 429.210938 C 599.890625 426.347656 590.582031 423.246094 584.394531 419.664062 C 580.570312 417.515625 577.957031 415.132812 577 412.984375 C 576.042969 410.835938 575.566406 408.449219 575.566406 406.300781 L 575.566406 394.132812 C 575.566406 389.121094 577.476562 386.734375 581.050781 386.734375 C 582.484375 386.734375 583.917969 386.972656 585.351562 387.453125 C 586.785156 387.929688 588.921875 388.882812 591.3125 389.835938 C 599.410156 393.417969 608.242188 396.28125 617.519531 398.1875 C 627.054688 400.097656 636.359375 401.050781 645.894531 401.050781 C 660.910156 401.050781 672.578125 398.429688 680.707031 393.179688 C 688.804688 387.929688 693.078125 380.292969 693.078125 370.507812 C 693.078125 363.828125 690.941406 358.339844 686.667969 353.804688 C 682.367188 349.273438 674.265625 345.21875 662.570312 341.398438 L 628.007812 330.660156 C 610.601562 325.171875 597.753906 317.058594 589.878906 306.320312 C 582.003906 295.824219 577.957031 284.128906 577.957031 271.722656 C 577.957031 261.699219 580.09375 252.871094 584.394531 245.234375 C 588.699219 237.597656 594.40625 230.917969 601.546875 225.667969 C 608.71875 220.179688 616.816406 216.121094 626.351562 213.257812 C 635.882812 210.394531 645.894531 209.203125 656.382812 209.203125 C 661.613281 209.203125 667.097656 209.441406 672.355469 210.15625 C 677.839844 210.875 682.84375 211.828125 687.847656 212.78125 C 692.601562 213.976562 697.128906 215.167969 701.429688 216.601562 C 705.734375 218.03125 709.050781 219.464844 711.441406 220.894531 C 714.789062 222.804688 717.179688 224.714844 718.585938 226.859375 C 720.019531 228.769531 720.75 231.394531 720.75 234.734375 L 720.75 245.949219 C 720.75 250.960938 718.835938 253.585938 715.265625 253.585938 C 713.355469 253.585938 710.261719 252.632812 706.210938 250.722656 C 692.601562 244.515625 677.359375 241.414062 660.433594 241.414062 C 646.851562 241.414062 636.109375 243.5625 628.742188 248.097656 C 621.34375 252.632812 617.519531 259.550781 617.519531 269.332031 C 617.519531 276.015625 619.910156 281.742188 624.691406 286.277344 C 629.445312 290.808594 638.273438 295.34375 650.898438 299.402344 L 684.753906 310.140625 C 701.910156 315.625 714.308594 323.261719 721.707031 333.046875 C 729.074219 342.828125 732.671875 354.042969 732.671875 366.453125 C 732.671875 376.714844 730.507812 386.019531 726.457031 394.132812 C 722.183594 402.246094 716.445312 409.402344 709.050781 415.132812 C 701.683594 421.097656 692.855469 425.390625 682.589844 428.496094 C 671.875 431.835938 660.683594 433.503906 648.507812 433.503906 Z M 648.507812 433.503906 " fill-opacity="1" fill-rule="nonzero"/></g><g clip-path="url(#c6594be24c)"><path fill="#ff9900" d="M 693.558594 549.460938 C 615.128906 607.449219 501.214844 638.246094 403.246094 638.246094 C 265.933594 638.246094 142.222656 587.40625 48.792969 502.929688 C 41.390625 496.257812 48.066406 487.195312 56.882812 492.429688 C 157.953125 551.152344 282.621094 586.703125 411.5625 586.703125 C 498.566406 586.703125 594.175781 568.574219 682.105469 531.332031 C 695.238281 525.367188 706.429688 539.917969 693.550781 549.460938 Z M 726.234375 512.25 C 716.222656 499.355469 659.953125 506.054688 634.449219 509.152344 C 626.828125 510.109375 625.621094 503.410156 632.535156 498.398438 C 677.359375 466.910156 751.007812 475.980469 759.582031 486.476562 C 768.1875 497.214844 757.222656 570.941406 715.265625 606.269531 C 708.828125 611.757812 702.613281 608.886719 705.480469 601.734375 C 715.011719 578.117188 736.242188 524.886719 726.234375 512.25 Z M 726.234375 512.25 " fill-opacity="1" fill-rule="nonzero"/></g></svg>