<svg xmlns="http://www.w3.org/2000/svg" xmlns:xlink="http://www.w3.org/1999/xlink" width="1080" zoomAndPan="magnify" viewBox="0 0 810 809.999993" height="1080" preserveAspectRatio="xMidYMid meet" version="1.0"><rect x="-81" width="972" fill="#ffffff" y="-80.999999" height="971.999992" fill-opacity="1"/><rect x="-81" width="972" fill="#ffffff" y="-80.999999" height="971.999992" fill-opacity="1"/><path fill="#00549d" d="M 386.667969 60.742188 C 397.949219 54.410156 411.835938 54.410156 423.101562 60.742188 C 478.839844 92.03125 646.570312 186.21875 702.328125 217.511719 C 713.609375 223.824219 720.554688 235.523438 720.554688 248.1875 C 720.554688 310.765625 720.554688 499.125 720.554688 561.703125 C 720.554688 574.367188 713.609375 586.066406 702.328125 592.398438 C 646.589844 623.6875 478.855469 717.875 423.101562 749.164062 C 411.820312 755.496094 397.929688 755.496094 386.667969 749.164062 C 330.929688 717.875 163.195312 623.6875 107.441406 592.398438 C 96.175781 586.066406 89.230469 574.382812 89.230469 561.722656 C 89.230469 499.140625 89.230469 310.785156 89.230469 248.203125 C 89.230469 235.539062 96.175781 223.839844 107.457031 217.511719 C 163.179688 186.21875 330.945312 92.03125 386.667969 60.742188 Z M 386.667969 60.742188 " fill-opacity="1" fill-rule="evenodd"/><path fill="#0086d4" d="M 94.28125 577.839844 C 89.863281 571.925781 89.230469 566.308594 89.230469 558.746094 C 89.230469 496.53125 89.230469 309.253906 89.230469 247.023438 C 89.230469 234.425781 96.160156 222.792969 107.40625 216.511719 C 162.945312 185.40625 330.113281 91.765625 385.652344 60.644531 C 396.902344 54.34375 412.136719 54.476562 423.382812 60.777344 C 478.921875 91.882812 645.523438 184.722656 701.066406 215.832031 C 705.550781 218.359375 708.972656 221.398438 712.03125 225.402344 Z M 94.28125 577.839844 " fill-opacity="1" fill-rule="evenodd"/><path fill="#ffffff" d="M 404.890625 172.3125 C 533.265625 172.3125 637.484375 276.550781 637.484375 404.953125 C 637.484375 533.355469 533.265625 637.59375 404.890625 637.59375 C 276.519531 637.59375 172.300781 533.355469 172.300781 404.953125 C 172.300781 276.550781 276.519531 172.3125 404.890625 172.3125 Z M 404.890625 288.632812 C 469.070312 288.632812 521.1875 340.746094 521.1875 404.953125 C 521.1875 469.144531 469.070312 521.273438 404.890625 521.273438 C 340.714844 521.273438 288.597656 469.144531 288.597656 404.953125 C 288.597656 340.746094 340.695312 288.632812 404.890625 288.632812 Z M 404.890625 288.632812 " fill-opacity="1" fill-rule="evenodd"/><path fill="#0075c0" d="M 711.996094 225.570312 C 720.570312 233.597656 720.402344 245.691406 720.402344 255.214844 C 720.402344 318.277344 719.871094 497.644531 720.554688 560.707031 C 720.621094 567.289062 718.441406 574.21875 715.1875 579.433594 L 398.128906 404.953125 Z M 711.996094 225.570312 " fill-opacity="1" fill-rule="evenodd"/><path fill="#ffffff" d="M 521.1875 355.101562 L 554.414062 355.101562 L 554.414062 454.804688 L 521.1875 454.804688 Z M 637.484375 355.101562 L 670.710938 355.101562 L 670.710938 454.804688 L 637.484375 454.804688 Z M 637.484375 355.101562 " fill-opacity="1" fill-rule="evenodd"/><path fill="#ffffff" d="M 487.960938 388.335938 L 587.644531 388.335938 L 587.644531 421.570312 L 487.960938 421.570312 Z M 604.257812 388.335938 L 703.9375 388.335938 L 703.9375 421.570312 L 604.257812 421.570312 Z M 604.257812 388.335938 " fill-opacity="1" fill-rule="evenodd"/></svg>