<svg xmlns="http://www.w3.org/2000/svg" xmlns:xlink="http://www.w3.org/1999/xlink" width="1080" zoomAndPan="magnify" viewBox="0 0 810 809.999993" height="1080" preserveAspectRatio="xMidYMid meet" version="1.0"><defs><clipPath id="2ebec6725b"><path d="M 145 197 L 665.074219 197 L 665.074219 767.632812 L 145 767.632812 Z M 145 197 " clip-rule="nonzero"/></clipPath></defs><rect x="-81" width="972" fill="#ffffff" y="-80.999999" height="971.999992" fill-opacity="1"/><rect x="-81" width="972" fill="#ffffff" y="-80.999999" height="971.999992" fill-opacity="1"/><path fill="#ffa000" d="M 487.429688 307.214844 L 415.335938 374.332031 L 348.445312 239.304688 L 383.0625 161.644531 C 392.0625 145.878906 406.109375 146.058594 414.886719 161.644531 Z M 487.429688 307.214844 " fill-opacity="1" fill-rule="nonzero"/><path fill="#f57f17" d="M 348.445312 239.304688 L 415.335938 374.332031 L 145.917969 625.128906 Z M 348.445312 239.304688 " fill-opacity="1" fill-rule="nonzero"/><g clip-path="url(#2ebec6725b)"><path fill="#ffca28" d="M 566.273438 204.621094 C 579.148438 192.230469 592.472656 196.464844 595.871094 214.011719 L 666.007812 621.796875 L 433.546875 761.441406 C 425.441406 765.945312 403.835938 767.882812 403.835938 767.882812 C 403.835938 767.882812 384.164062 765.539062 376.667969 761.125 L 145.917969 625.128906 Z M 566.273438 204.621094 " fill-opacity="1" fill-rule="nonzero"/></g><path fill="#ffa000" d="M 348.445312 239.304688 L 145.941406 625.128906 L 236.128906 61.257812 C 239.460938 43.691406 249.453125 42 258.367188 57.496094 Z M 348.445312 239.304688 " fill-opacity="1" fill-rule="nonzero"/></svg>