<svg xmlns="http://www.w3.org/2000/svg" xmlns:xlink="http://www.w3.org/1999/xlink" width="350" zoomAndPan="magnify" viewBox="0 0 262.5 262.500001" height="350" preserveAspectRatio="xMidYMid meet" version="1.0"><defs><clipPath id="5aeb93aac4"><path d="M 55 5.550781 L 183 5.550781 L 183 256.800781 L 55 256.800781 Z M 55 5.550781 " clip-rule="nonzero"/></clipPath></defs><path fill="#4e7896" d="M 99.683594 138.792969 C 99.683594 138.792969 93.070312 142.820312 104.285156 143.972656 C 117.800781 145.699219 124.992188 145.410156 139.945312 142.53125 C 139.945312 142.53125 143.972656 145.121094 149.4375 147.136719 C 115.789062 161.527344 73.226562 146.273438 99.683594 138.792969 Z M 95.371094 120.085938 C 95.371094 120.085938 88.183594 125.554688 99.398438 126.707031 C 114.0625 128.144531 125.566406 128.433594 145.410156 124.402344 C 145.410156 124.402344 147.996094 127.28125 152.3125 128.71875 C 111.761719 140.804688 66.324219 129.871094 95.371094 120.085938 Z M 174.746094 152.890625 C 174.746094 152.890625 179.632812 156.917969 169.28125 160.082031 C 150.011719 165.839844 88.472656 167.566406 71.214844 160.082031 C 65.175781 157.496094 76.679688 153.753906 80.417969 153.175781 C 84.15625 152.3125 86.167969 152.3125 86.167969 152.3125 C 79.554688 147.710938 42.167969 161.8125 67.1875 165.839844 C 135.917969 177.0625 192.570312 160.949219 174.742188 152.890625 Z M 102.851562 100.515625 C 102.851562 100.515625 71.503906 107.996094 91.636719 110.585938 C 100.261719 111.738281 117.230469 111.449219 133.046875 110.296875 C 145.988281 109.148438 158.929688 106.84375 158.929688 106.84375 C 158.929688 106.84375 154.328125 108.859375 151.164062 110.875 C 119.242188 119.21875 57.988281 115.476562 75.53125 106.84375 C 90.484375 99.648438 102.847656 100.511719 102.847656 100.511719 Z M 158.925781 131.882812 C 191.136719 115.191406 176.183594 99.074219 165.828125 101.089844 C 163.242188 101.664062 162.089844 102.242188 162.089844 102.242188 C 162.089844 102.242188 162.953125 100.515625 164.964844 99.9375 C 185.382812 92.746094 201.488281 121.519531 158.351562 132.746094 C 158.351562 132.746094 158.640625 132.457031 158.925781 131.882812 Z M 106.011719 177.351562 C 137.070312 179.363281 184.515625 176.199219 185.675781 161.523438 C 185.675781 161.523438 183.375 167.277344 160.078125 171.59375 C 133.621094 176.488281 100.839844 175.910156 81.578125 172.746094 C 81.578125 172.746094 85.601562 176.199219 106.019531 177.351562 Z M 106.011719 177.351562 " fill-opacity="1" fill-rule="nonzero"/><g clip-path="url(#5aeb93aac4)"><path fill="#f58219" d="M 139.371094 5.550781 C 139.371094 5.550781 157.199219 23.679688 122.402344 51.015625 C 94.507812 73.175781 116.074219 85.839844 122.402344 100.226562 C 106.011719 85.550781 94.21875 72.601562 102.273438 60.515625 C 114.066406 42.671875 146.5625 34.042969 139.371094 5.550781 Z M 130.171875 88.140625 C 138.511719 97.640625 127.871094 106.273438 127.871094 106.273438 C 127.871094 106.273438 149.152344 95.335938 139.375 81.8125 C 130.460938 68.863281 123.558594 62.53125 160.941406 40.953125 C 160.941406 40.953125 101.992188 55.628906 130.171875 88.148438 Z M 108.886719 242.671875 L 108.886719 214.472656 C 108.886719 207.277344 104.863281 202.382812 94.796875 202.382812 C 89.046875 202.382812 84.15625 203.824219 79.84375 205.542969 L 81.28125 210.726562 C 84.4375 209.574219 88.46875 208.421875 92.785156 208.421875 C 98.25 208.421875 100.835938 210.726562 100.835938 215.328125 L 100.835938 219.070312 L 97.960938 219.070312 C 84.15625 219.070312 77.832031 224.25 77.832031 232.59375 C 77.832031 239.5 82.144531 243.53125 89.910156 243.53125 C 94.796875 243.53125 98.535156 241.226562 101.988281 238.351562 L 102.5625 242.667969 L 108.890625 242.667969 Z M 100.835938 233.464844 C 97.960938 236.054688 94.796875 237.492188 91.921875 237.492188 C 88.183594 237.492188 85.882812 235.191406 85.882812 231.164062 C 85.882812 227.132812 88.183594 224.253906 97.382812 224.253906 L 100.835938 224.253906 Z M 135.921875 242.671875 L 125.855469 242.671875 L 113.777344 203.246094 L 122.40625 203.246094 L 129.882812 227.421875 L 131.609375 234.613281 C 135.347656 224.253906 138.222656 213.609375 139.375 203.246094 L 148 203.246094 C 145.699219 216.199219 141.671875 230.296875 135.921875 242.671875 Z M 182.507812 242.671875 L 182.507812 214.472656 C 182.507812 207.277344 178.480469 202.382812 168.417969 202.382812 C 162.664062 202.382812 157.777344 203.824219 153.460938 205.542969 L 154.613281 210.726562 C 158.0625 209.574219 162.089844 208.421875 166.402344 208.421875 C 171.867188 208.421875 174.457031 210.726562 174.457031 215.328125 L 174.457031 219.070312 L 171.582031 219.070312 C 157.777344 219.070312 151.449219 224.25 151.449219 232.59375 C 151.449219 239.5 155.476562 243.53125 163.242188 243.53125 C 168.417969 243.53125 172.15625 241.226562 175.605469 238.351562 L 176.179688 242.667969 L 182.507812 242.667969 Z M 174.457031 233.464844 C 171.582031 236.054688 168.417969 237.492188 165.539062 237.492188 C 161.800781 237.492188 159.503906 235.191406 159.503906 231.164062 C 159.503906 227.132812 161.804688 224.253906 171.003906 224.253906 L 174.457031 224.253906 Z M 68.917969 249.292969 C 66.617188 252.746094 63.164062 255.335938 58.851562 256.773438 L 55.109375 252.171875 C 57.984375 250.445312 60.863281 247.855469 62.011719 245.554688 C 63.164062 243.539062 63.449219 240.660156 63.449219 234.042969 L 63.449219 189.148438 L 72.078125 189.148438 L 72.078125 233.46875 C 72.078125 242.386719 71.214844 245.84375 68.921875 249.296875 Z M 68.917969 249.292969 " fill-opacity="1" fill-rule="nonzero"/></g></svg>