<svg xmlns="http://www.w3.org/2000/svg" xmlns:xlink="http://www.w3.org/1999/xlink" width="1080" zoomAndPan="magnify" viewBox="0 0 810 809.999993" height="1080" preserveAspectRatio="xMidYMid meet" version="1.0"><defs><clipPath id="312a74db98"><path d="M 35.441406 76 L 774 76 L 774 734 L 35.441406 734 Z M 35.441406 76 " clip-rule="nonzero"/></clipPath></defs><rect x="-81" width="972" fill="#ffffff" y="-80.999999" height="971.999992" fill-opacity="1"/><rect x="-81" width="972" fill="#ffffff" y="-80.999999" height="971.999992" fill-opacity="1"/><g clip-path="url(#312a74db98)"><path fill="#00d8ff" d="M 642.574219 289.457031 C 634.71875 286.757812 626.792969 284.257812 618.808594 281.957031 C 620.148438 276.472656 621.382812 271.054688 622.480469 265.730469 C 640.472656 178.320312 628.710938 107.894531 588.53125 84.710938 C 550.007812 62.480469 487.007812 85.660156 423.382812 141.078125 C 417.113281 146.546875 410.980469 152.175781 404.996094 157.957031 C 400.988281 154.113281 396.910156 150.34375 392.761719 146.652344 C 326.078125 87.398438 259.238281 62.425781 219.105469 85.675781 C 180.617188 107.972656 169.21875 174.175781 185.417969 257.019531 C 187.03125 265.222656 188.851562 273.386719 190.875 281.5 C 181.414062 284.191406 172.285156 287.054688 163.546875 290.101562 C 85.367188 317.382812 35.441406 360.132812 35.441406 404.472656 C 35.441406 450.273438 89.039062 496.210938 170.46875 524.0625 C 177.070312 526.3125 183.726562 528.398438 190.433594 530.3125 C 188.253906 539.050781 186.320312 547.847656 184.632812 556.691406 C 169.191406 638.097656 181.25 702.734375 219.632812 724.890625 C 259.277344 747.773438 325.816406 724.257812 390.605469 667.574219 C 395.859375 662.96875 401 658.230469 406.015625 653.363281 C 412.5 659.625 419.15625 665.703125 425.976562 671.589844 C 488.738281 725.636719 550.71875 747.460938 589.066406 725.242188 C 628.671875 702.296875 641.546875 632.859375 624.832031 548.378906 C 623.515625 541.761719 622.039062 535.175781 620.40625 528.628906 C 625.078125 527.242188 629.664062 525.816406 634.136719 524.332031 C 718.789062 496.265625 773.867188 450.886719 773.867188 404.472656 C 773.867188 359.96875 722.328125 316.929688 642.574219 289.457031 Z M 624.214844 494.367188 C 620.179688 495.703125 616.035156 496.996094 611.8125 498.25 C 602.46875 468.640625 589.855469 437.160156 574.421875 404.628906 C 589.148438 372.875 601.277344 341.792969 610.359375 312.375 C 617.914062 314.5625 625.242188 316.871094 632.308594 319.304688 C 700.644531 342.847656 742.324219 377.652344 742.324219 404.472656 C 742.324219 433.042969 697.308594 470.128906 624.214844 494.367188 Z M 593.890625 554.511719 C 601.277344 591.863281 602.332031 625.640625 597.4375 652.042969 C 593.039062 675.769531 584.195312 691.585938 573.257812 697.925781 C 549.988281 711.40625 500.222656 693.882812 446.550781 647.660156 C 440.207031 642.183594 434.015625 636.535156 427.984375 630.714844 C 448.792969 607.941406 469.585938 581.464844 489.882812 552.0625 C 525.582031 548.890625 559.304688 543.707031 589.890625 536.632812 C 591.363281 542.558594 592.695312 548.519531 593.890625 554.511719 Z M 287.1875 695.59375 C 264.449219 703.628906 246.34375 703.859375 235.394531 697.542969 C 212.101562 684.097656 202.417969 632.199219 215.628906 562.582031 C 217.199219 554.355469 218.996094 546.175781 221.019531 538.046875 C 251.265625 544.746094 284.746094 549.558594 320.527344 552.464844 C 340.960938 581.234375 362.355469 607.679688 383.917969 630.839844 C 379.335938 635.277344 374.644531 639.597656 369.851562 643.804688 C 341.199219 668.867188 312.488281 686.652344 287.1875 695.59375 Z M 180.671875 494.191406 C 144.667969 481.875 114.929688 465.867188 94.546875 448.398438 C 76.230469 432.703125 66.988281 417.117188 66.988281 404.472656 C 66.988281 377.5625 107.074219 343.242188 173.933594 319.914062 C 182.046875 317.085938 190.539062 314.414062 199.351562 311.90625 C 208.59375 341.988281 220.714844 373.4375 235.339844 405.242188 C 220.523438 437.515625 208.230469 469.46875 198.898438 499.90625 C 192.777344 498.148438 186.699219 496.246094 180.671875 494.191406 Z M 216.378906 250.953125 C 202.5 179.976562 211.71875 126.4375 234.910156 113 C 259.613281 98.6875 314.238281 119.09375 371.816406 170.257812 C 375.570312 173.601562 379.265625 177.015625 382.898438 180.492188 C 361.441406 203.546875 340.242188 229.796875 319.992188 258.398438 C 285.261719 261.621094 252.019531 266.792969 221.453125 273.726562 C 219.570312 266.179688 217.878906 258.589844 216.378906 250.957031 Z M 534.902344 329.671875 C 527.683594 317.191406 520.199219 304.867188 512.449219 292.710938 C 536.007812 295.691406 558.582031 299.652344 579.78125 304.488281 C 573.417969 324.902344 565.484375 346.246094 556.148438 368.128906 C 549.324219 355.167969 542.238281 342.347656 534.902344 329.671875 Z M 405.007812 203.054688 C 419.558594 218.832031 434.132812 236.441406 448.464844 255.554688 C 419.386719 254.179688 390.265625 254.171875 361.1875 255.535156 C 375.535156 236.601562 390.230469 219.011719 405.007812 203.054688 Z M 274.28125 329.886719 C 267.035156 342.460938 260.085938 355.203125 253.433594 368.101562 C 244.25 346.296875 236.390625 324.859375 229.972656 304.15625 C 251.039062 299.4375 273.507812 295.582031 296.917969 292.652344 C 289.082031 304.882812 281.535156 317.296875 274.28125 329.882812 Z M 297.589844 518.542969 C 273.402344 515.839844 250.601562 512.183594 229.535156 507.589844 C 236.054688 486.519531 244.089844 464.621094 253.472656 442.351562 C 260.148438 455.261719 267.128906 468.007812 274.40625 480.589844 C 281.886719 493.523438 289.636719 506.1875 297.589844 518.542969 Z M 405.878906 608.117188 C 390.925781 591.972656 376.015625 574.113281 361.449219 554.90625 C 375.589844 555.460938 390.003906 555.742188 404.652344 555.742188 C 419.707031 555.742188 434.582031 555.40625 449.230469 554.753906 C 434.847656 574.308594 420.332031 592.195312 405.878906 608.117188 Z M 556.445312 441.214844 C 566.316406 463.730469 574.632812 485.511719 581.238281 506.222656 C 559.832031 511.113281 536.714844 515.050781 512.359375 517.976562 C 520.164062 505.59375 527.722656 493.054688 535.027344 480.375 C 542.457031 467.480469 549.597656 454.425781 556.445312 441.214844 Z M 507.703125 464.601562 C 496.515625 484.046875 484.703125 503.121094 472.277344 521.800781 C 449.773438 523.394531 427.214844 524.1875 404.652344 524.175781 C 381.675781 524.175781 359.320312 523.460938 337.796875 522.0625 C 325.046875 503.429688 313.007812 484.316406 301.703125 464.773438 L 301.707031 464.773438 C 290.457031 445.332031 279.945312 425.46875 270.199219 405.226562 C 279.921875 384.984375 290.398438 365.109375 301.613281 345.652344 L 301.609375 345.65625 C 312.816406 326.195312 324.761719 307.167969 337.414062 288.613281 C 359.375 286.949219 381.894531 286.082031 404.652344 286.082031 C 427.515625 286.082031 450.066406 286.957031 472.019531 288.632812 C 484.542969 307.160156 496.410156 326.121094 507.597656 345.488281 C 518.847656 364.902344 529.464844 384.675781 539.433594 404.78125 C 529.570312 425.089844 518.984375 445.042969 507.703125 464.601562 Z M 572.777344 112.058594 C 597.503906 126.332031 607.121094 183.882812 591.585938 259.359375 C 590.589844 264.171875 589.476562 269.078125 588.265625 274.050781 C 557.628906 266.972656 524.359375 261.710938 489.53125 258.441406 C 469.242188 229.523438 448.214844 203.234375 427.109375 180.476562 C 432.640625 175.136719 438.304688 169.941406 444.09375 164.886719 C 498.609375 117.40625 549.5625 98.660156 572.777344 112.058594 Z M 404.652344 338.484375 C 441.070312 338.484375 470.59375 368.03125 470.59375 404.472656 C 470.59375 440.921875 441.070312 470.464844 404.652344 470.464844 C 368.238281 470.464844 338.714844 440.921875 338.714844 404.472656 C 338.714844 368.03125 368.238281 338.484375 404.652344 338.484375 Z M 404.652344 338.484375 " fill-opacity="1" fill-rule="nonzero"/></g></svg>